<?xml version="1.0" standalone="no"?>
<!DOCTYPE svg PUBLIC "-//W3C//DTD SVG 20010904//EN"
 "http://www.w3.org/TR/2001/REC-SVG-20010904/DTD/svg10.dtd">
<svg version="1.0" xmlns="http://www.w3.org/2000/svg"
 width="87.000000pt" height="87.000000pt" viewBox="0 0 87.000000 87.000000"
 preserveAspectRatio="xMidYMid meet">
<metadata>
Created by potrace 1.14, written by Peter Selinger 2001-2017
</metadata>
<g transform="translate(0.000000,87.000000) scale(0.100000,-0.100000)"
fill="#000000" stroke="none">
<path d="M0 440 l0 -370 435 0 435 0 0 370 0 370 -435 0 -435 0 0 -370z m448
170 c3 -17 -110 -194 -177 -277 -39 -50 -72 -66 -86 -43 -3 5 1 49 9 97 9 47
14 88 12 90 -4 4 -84 -123 -110 -174 -10 -21 -24 -33 -37 -33 -46 0 -31 46 68
200 67 104 110 150 139 150 34 0 36 -12 19 -85 -8 -37 -15 -74 -15 -83 0 -20
69 74 100 136 19 37 26 43 48 40 15 -2 28 -10 30 -18z m130 -2 c7 -7 12 -15
12 -18 0 -3 -34 -51 -75 -105 -41 -54 -72 -101 -69 -104 4 -4 50 40 103 97 75
79 103 102 124 102 40 0 41 -15 2 -66 -43 -55 -89 -144 -76 -144 12 0 114 111
152 166 25 37 29 48 18 55 -12 8 -12 11 1 19 24 15 58 12 69 -8 25 -47 -105
-214 -238 -304 -54 -37 -102 -9 -81 47 5 14 10 27 10 29 0 1 -21 -17 -47 -41
-51 -48 -86 -62 -108 -43 -31 26 -7 101 57 182 25 32 27 39 14 44 -30 11 -16
55 19 60 6 1 26 11 45 23 40 24 51 26 68 9z"/>
</g>
</svg>
